# xmcd CD database file
#
# Track frame offsets:
#	150
#	46318
#	76670
#	111835
#	150942
#	177538
#	220155
#
# Disc length: 3281 seconds
#
# Revision: 0
# Processed by: cddbd v1.5.2PL0 Copyright (c) Steve Scherf et al.
# Submitted via: CDex 1.51
#
DISCID=4e0ccf07
DTITLE=Nils Tegen - bunosi cenderent
DYEAR=2014
DGENRE=Jazz
TTITLE0=Long ago and far away
TTITLE1=Bunosi cenderent
TTITLE2=Blue in green
TTITLE3=It could happen to you
TTITLE4=Börnol
TTITLE5=Here's that rainy day
TTITLE6=Zavars blau
EXTD=YEAR: 2014
EXTT0=
EXTT1=
EXTT2=
EXTT3=
EXTT4=
EXTT5=
EXTT6=
PLAYORDER=
